# xmcd CD database file
#
# Track frame offsets:
#	150
#	25350
#	48220
#	70937
#	101972
#	123900
#	146845
#	180467
#	204692
#	224272
#	244687
#	263195
#	290535
#
# Disc length: 4050 seconds
#
# Revision: 0
# Processed by: cddbd v1.4PL0 Copyright (c) Steve Scherf et al.
# Submitted via: CDex 1.50beta10
#
DISCID=cb0fd00d
DTITLE=Harry Allen - If Ever You Were Mine
DYEAR=2003
DGENRE=Jazz
TTITLE0=Summer Samba(So Nice)
TTITLE1=I Like You Just The Way You Are
TTITLE2=La Belle Dame Sams Regrets
TTITLE3=I Will Wait For You
TTITLE4=If Ever You Were Mine
TTITLE5=Bonita
TTITLE6=Angel Eyes
TTITLE7=I've Got Your Number
TTITLE8=Dancing In The Dark
TTITLE9=I Got Lost In His Arms
TTITLE10=Tonight I Shall Sleep With A Smile On My Face
TTITLE11=Only Trust Your Heart
TTITLE12=Falando De Amor
EXTD=YEAR: 2003
EXTT0=
EXTT1=
EXTT2=
EXTT3=
EXTT4=
EXTT5=
EXTT6=
EXTT7=
EXTT8=
EXTT9=
EXTT10=
EXTT11=
EXTT12=
PLAYORDER=
